<svg width="40" height="40" viewBox="0 0 40 40" fill="none" xmlns="http://www.w3.org/2000/svg">
<path d="M31.2522 6.7368C30.2868 8.14464 29.2547 9.65021 28.1547 11.2554L28.18 11.273C24.5868 16.4481 27.7264 26.1934 37.0956 27.1599C37.8684 26.2069 38.4067 25.3638 38.7713 24.4834C39.9604 21.6127 39.9604 18.3873 38.7713 15.5166C37.8795 13.3636 35.9495 11.4336 32.0895 7.57359C31.7999 7.28392 31.5211 7.00511 31.2522 6.7368Z" fill="#FF3049"/>
<path d="M26.0122 1.94872C23.9452 4.96252 21.5569 8.44715 18.8346 12.4226C13.8344 19.7246 6.71553 20.0396 2.10043 17.3597C1.45831 16.9869 0.867868 16.5587 0.336853 16.0843C0.40446 15.8937 0.477155 15.7044 0.554938 15.5166C1.44674 13.3636 3.37674 11.4336 7.23672 7.57359C11.0967 3.71361 13.0267 1.78361 15.1797 0.891807C18.0504 -0.297269 21.2759 -0.297269 24.1465 0.891807C24.7697 1.14993 25.3742 1.49503 26.0122 1.94872Z" fill="#FF3049"/>
<path d="M0.530605 24.4242C0.53866 24.444 0.54677 24.4637 0.554938 24.4834C1.44674 26.6364 3.37674 28.5664 7.23672 32.4264C11.0967 36.2864 13.0267 38.2164 15.1797 39.1082C18.0504 40.2973 21.2759 40.2973 24.1465 39.1082C26.1911 38.2613 28.0346 36.4782 31.5208 32.995C25.8577 30.8737 21.9242 26.3221 20.365 21.1913C14.2135 26.4382 6.5985 27.033 0.530605 24.4242Z" fill="#FF3049"/>
</svg>
