<svg width="28" height="28" viewBox="0 0 28 28" fill="none" xmlns="http://www.w3.org/2000/svg">
<g filter="url(#filter0_i_807_50980)">
<path d="M21.8765 4.71576C21.2007 5.70125 20.4783 6.75515 19.7083 7.87878L19.726 7.89108C17.2107 11.5136 19.4084 18.3353 25.9669 19.0119C26.5079 18.3448 26.8846 17.7547 27.1399 17.1384C27.9722 15.1289 27.9722 12.8711 27.1399 10.8616C26.5156 9.3545 25.1646 8.00351 22.4627 5.30152C22.2599 5.09874 22.0647 4.90358 21.8765 4.71576Z" fill="url(#paint0_linear_807_50980)" fill-opacity="0.64"/>
<path d="M18.2085 1.36411C16.7616 3.47377 15.0898 5.913 13.1842 8.69584C9.68403 13.8073 4.70085 14.0277 1.47028 12.1518C1.0208 11.8908 0.607489 11.5911 0.235779 11.259C0.283103 11.1256 0.33399 10.9931 0.388438 10.8616C1.0127 9.3545 2.3637 8.00351 5.06569 5.30152C7.76768 2.59952 9.11867 1.24853 10.6258 0.624265C12.6353 -0.208088 14.8931 -0.208088 16.9026 0.624265C17.3388 0.804951 17.7619 1.04652 18.2085 1.36411Z" fill="url(#paint1_linear_807_50980)" fill-opacity="0.64"/>
<path d="M0.371405 17.0969C0.377043 17.1108 0.382721 17.1246 0.388438 17.1384C1.0127 18.6455 2.3637 19.9965 5.06569 22.6985C7.76768 25.4005 9.11867 26.7515 10.6258 27.3757C12.6353 28.2081 14.8931 28.2081 16.9026 27.3757C18.3338 26.7829 19.6242 25.5347 22.0645 23.0965C18.1004 21.6116 15.3469 18.4255 14.2555 14.8339C9.94946 18.5067 4.61893 18.9231 0.371405 17.0969Z" fill="url(#paint2_linear_807_50980)" fill-opacity="0.64"/>
</g>
<path d="M20.8394 7.69021L20.8177 7.67513C21.2228 7.084 21.6142 6.51307 21.9919 5.96214C23.302 7.27231 24.2633 8.23662 24.9775 9.05551C25.7042 9.88863 26.1358 10.5279 26.4008 11.1678C27.152 12.9812 27.152 15.0188 26.4008 16.8322C26.2253 17.2559 25.9764 17.6802 25.6165 18.1609C19.9888 17.3001 18.279 11.3779 20.3831 8.34734L20.8394 7.69021ZM16.5964 1.36337C16.7565 1.42967 16.9166 1.50645 17.0797 1.59565C15.7437 3.54395 14.2273 5.75668 12.5241 8.24384C9.26501 13.0032 4.74725 13.1296 1.872 11.46C1.63416 11.3219 1.40832 11.1721 1.19535 11.0121C1.46448 10.423 1.88302 9.82109 2.5508 9.05551C3.28222 8.21696 4.27264 7.22594 5.63137 5.8672C6.99011 4.50847 7.98113 3.51805 8.81968 2.78662C9.6528 2.05993 10.2921 1.62839 10.9319 1.36337C12.7454 0.612211 14.783 0.612211 16.5964 1.36337ZM2.22247 18.5567C5.97878 19.4748 10.2192 18.8392 13.8739 16.1562C15.0887 19.1793 17.4367 21.8275 20.6581 23.3671C18.7322 25.2708 17.6967 26.1809 16.5964 26.6366C14.783 27.3878 12.7454 27.3878 10.9319 26.6366C10.2921 26.3716 9.6528 25.9401 8.81968 25.2134C7.98113 24.4819 6.99011 23.4915 5.63137 22.1328C4.27264 20.7741 3.28222 19.783 2.5508 18.9445C2.4339 18.8105 2.32463 18.6815 2.22247 18.5567Z" stroke="#FF576C" stroke-opacity="0.24" stroke-width="1.6"/>
<defs>
<filter id="filter0_i_807_50980" x="0.235779" y="0" width="27.5284" height="28" filterUnits="userSpaceOnUse" color-interpolation-filters="sRGB">
<feFlood flood-opacity="0" result="BackgroundImageFix"/>
<feBlend mode="normal" in="SourceGraphic" in2="BackgroundImageFix" result="shape"/>
<feColorMatrix in="SourceAlpha" type="matrix" values="0 0 0 0 0 0 0 0 0 0 0 0 0 0 0 0 0 0 127 0" result="hardAlpha"/>
<feOffset/>
<feGaussianBlur stdDeviation="4"/>
<feComposite in2="hardAlpha" operator="arithmetic" k2="-1" k3="1"/>
<feColorMatrix type="matrix" values="0 0 0 0 1 0 0 0 0 0.341176 0 0 0 0 0.423529 0 0 0 0.8 0"/>
<feBlend mode="normal" in2="shape" result="effect1_innerShadow_807_50980"/>
</filter>
<linearGradient id="paint0_linear_807_50980" x1="-7.957" y1="-10.1311" x2="46.2651" y2="60.6667" gradientUnits="userSpaceOnUse">
<stop stop-color="#FF576C"/>
<stop offset="1" stop-color="#FF576C" stop-opacity="0.6"/>
</linearGradient>
<linearGradient id="paint1_linear_807_50980" x1="-7.957" y1="-10.1311" x2="46.2651" y2="60.6667" gradientUnits="userSpaceOnUse">
<stop stop-color="#FF576C"/>
<stop offset="1" stop-color="#FF576C" stop-opacity="0.6"/>
</linearGradient>
<linearGradient id="paint2_linear_807_50980" x1="-7.957" y1="-10.1311" x2="46.2651" y2="60.6667" gradientUnits="userSpaceOnUse">
<stop stop-color="#FF576C"/>
<stop offset="1" stop-color="#FF576C" stop-opacity="0.6"/>
</linearGradient>
</defs>
</svg>
