<svg width="187" height="40" viewBox="0 0 187 40" fill="none" xmlns="http://www.w3.org/2000/svg">
<path d="M31.3108 6.7368C30.3454 8.14464 29.3133 9.65021 28.2133 11.2554L28.2386 11.273C24.6454 16.4481 27.785 26.1934 37.1542 27.1599C37.927 26.2069 38.4652 25.3638 38.8299 24.4834C40.019 21.6127 40.019 18.3873 38.8299 15.5166C37.9381 13.3636 36.0081 11.4336 32.1481 7.57359C31.8585 7.28392 31.5796 7.00511 31.3108 6.7368Z" fill="#FF3049"/>
<path d="M26.0708 1.94872C24.0038 4.96252 21.6155 8.44715 18.8932 12.4226C13.893 19.7246 6.77412 20.0396 2.15903 17.3597C1.5169 16.9869 0.926462 16.5587 0.395447 16.0843C0.463053 15.8937 0.535748 15.7044 0.613531 15.5166C1.50534 13.3636 3.43533 11.4336 7.29532 7.57359C11.1553 3.71361 13.0853 1.78361 15.2383 0.891807C18.109 -0.297269 21.3345 -0.297269 24.2051 0.891807C24.8283 1.14993 25.4328 1.49503 26.0708 1.94872Z" fill="#FF3049"/>
<path d="M0.589198 24.4242C0.597253 24.444 0.605364 24.4637 0.613531 24.4834C1.50534 26.6364 3.43533 28.5664 7.29532 32.4264C11.1553 36.2864 13.0853 38.2164 15.2383 39.1082C18.109 40.2973 21.3345 40.2973 24.2051 39.1082C26.2497 38.2613 28.0932 36.4782 31.5794 32.995C25.9163 30.8737 21.9828 26.3221 20.4236 21.1913C14.2721 26.4382 6.65709 27.033 0.589198 24.4242Z" fill="#FF3049"/>
<path d="M52.1187 37.2084C51.9624 37.2084 51.7931 37.2019 51.6108 37.1889C51.4285 37.1889 51.2723 37.1823 51.1421 37.1693V33.7123C51.2463 33.7123 51.3504 33.7123 51.4546 33.7123C51.5457 33.7123 51.6434 33.7123 51.7476 33.7123C52.7892 33.7123 53.5249 33.517 53.9546 33.1263C54.3973 32.7357 54.6187 32.0261 54.6187 30.9974V9.7865H58.8569V31.0365C58.8569 33.1198 58.3035 34.6693 57.1968 35.6849C56.09 36.7006 54.3973 37.2084 52.1187 37.2084ZM56.728 6.62244C56.0509 6.62244 55.4715 6.38806 54.9897 5.91931C54.508 5.43754 54.2671 4.86462 54.2671 4.20056C54.2671 3.51046 54.508 2.93103 54.9897 2.46228C55.4715 1.99353 56.0509 1.75916 56.728 1.75916C57.4312 1.75916 58.0171 1.99353 58.4858 2.46228C58.9676 2.93103 59.2085 3.51046 59.2085 4.20056C59.2085 4.86462 58.9676 5.43754 58.4858 5.91931C58.0171 6.38806 57.4312 6.62244 56.728 6.62244Z" fill="#FFDBDF"/>
<path d="M69.8651 30.7435C68.3677 30.7435 67.0851 30.4375 66.0174 29.8256C64.9627 29.2006 64.1554 28.3151 63.5955 27.1693C63.0356 26.0235 62.7557 24.6628 62.7557 23.0873V9.7865H67.0135V22.2865C67.0135 23.836 67.3716 25.0274 68.0877 25.8607C68.8169 26.681 69.9106 27.0912 71.369 27.0912C72.1242 27.0912 72.7947 26.9675 73.3807 26.7201C73.9796 26.4597 74.494 26.1016 74.9237 25.6459C75.3533 25.1771 75.6789 24.6172 75.9002 23.9662C76.1346 23.3021 76.2518 22.573 76.2518 21.7787V9.7865H80.4901V30.3334H76.2518V27.2474H76.1541C75.8026 27.9245 75.3338 28.53 74.7479 29.0638C74.1619 29.5847 73.4588 29.9948 72.6385 30.2943C71.8312 30.5938 70.9067 30.7435 69.8651 30.7435Z" fill="#FFDBDF"/>
<path d="M84.3302 30.3334V9.7865H88.588V12.892H88.6662C89.213 11.8503 90.0138 11.0105 91.0685 10.3724C92.1232 9.7214 93.4253 9.39588 94.9747 9.39588C97.2273 9.39588 98.9721 10.0795 100.209 11.4467C101.446 12.8008 102.065 14.6628 102.065 17.0326V30.3334H97.8263V17.8529C97.8263 16.3034 97.4617 15.112 96.7326 14.2787C96.0164 13.4454 94.9292 13.0287 93.4708 13.0287C92.4813 13.0287 91.6154 13.25 90.8732 13.6928C90.144 14.1355 89.5776 14.7539 89.174 15.5482C88.7833 16.3425 88.588 17.28 88.588 18.3607V30.3334H84.3302Z" fill="#FFDBDF"/>
<path d="M114.655 30.7435C112.663 30.7435 110.931 30.3073 109.459 29.4349C108.001 28.5625 106.875 27.3256 106.081 25.724C105.299 24.1224 104.909 22.2279 104.909 20.0404V20.0209C104.909 17.8464 105.306 15.9649 106.1 14.3763C106.907 12.7878 108.04 11.5638 109.498 10.7045C110.957 9.83207 112.663 9.39588 114.616 9.39588C116.373 9.39588 117.89 9.73442 119.166 10.4115C120.456 11.0756 121.465 11.961 122.194 13.0678C122.923 14.1745 123.346 15.3724 123.463 16.6615L123.483 16.8178H119.44L119.401 16.642C119.179 15.6394 118.672 14.7735 117.877 14.0443C117.096 13.3021 116.015 12.931 114.635 12.931C113.554 12.931 112.604 13.224 111.784 13.8099C110.976 14.3829 110.345 15.2032 109.889 16.2709C109.446 17.3386 109.225 18.6016 109.225 20.0599V20.0795C109.225 21.5769 109.453 22.8594 109.909 23.9271C110.364 24.9818 110.996 25.7891 111.803 26.349C112.623 26.9089 113.581 27.1888 114.674 27.1888C115.976 27.1888 117.025 26.8503 117.819 26.1732C118.626 25.4831 119.16 24.5847 119.42 23.4779L119.44 23.3217H123.502V23.4584C123.346 24.8256 122.877 26.0625 122.096 27.1693C121.328 28.2631 120.306 29.1355 119.03 29.7865C117.767 30.4245 116.308 30.7435 114.655 30.7435Z" fill="#FFDBDF"/>
<path d="M133.436 30.7435C131.405 30.7435 129.888 30.2878 128.886 29.3763C127.896 28.4519 127.401 26.961 127.401 24.9037V13.1459H124.452V9.7865H127.401V4.43494H131.737V9.7865H135.585V13.1459H131.737V24.6693C131.737 25.711 131.965 26.4271 132.421 26.8178C132.876 27.1954 133.553 27.3842 134.452 27.3842C134.673 27.3842 134.875 27.3776 135.057 27.3646C135.253 27.3386 135.428 27.3191 135.585 27.306V30.5678C135.337 30.6068 135.025 30.6459 134.647 30.6849C134.27 30.724 133.866 30.7435 133.436 30.7435Z" fill="#FFDBDF"/>
<path d="M138.898 30.3334V9.7865H143.155V30.3334H138.898ZM141.026 6.62244C140.349 6.62244 139.77 6.38806 139.288 5.91931C138.806 5.43754 138.566 4.86462 138.566 4.20056C138.566 3.51046 138.806 2.93103 139.288 2.46228C139.77 1.99353 140.349 1.75916 141.026 1.75916C141.717 1.75916 142.296 1.99353 142.765 2.46228C143.246 2.93103 143.487 3.51046 143.487 4.20056C143.487 4.86462 143.246 5.43754 142.765 5.91931C142.296 6.38806 141.717 6.62244 141.026 6.62244Z" fill="#FFDBDF"/>
<path d="M156.019 30.7435C154.053 30.7435 152.334 30.3138 150.863 29.4545C149.404 28.5821 148.272 27.3516 147.464 25.7631C146.657 24.1615 146.253 22.2605 146.253 20.0599V20.0209C146.253 17.8334 146.657 15.9454 147.464 14.3568C148.285 12.7683 149.424 11.5443 150.882 10.6849C152.354 9.82556 154.059 9.39588 155.999 9.39588C157.953 9.39588 159.658 9.82556 161.117 10.6849C162.588 11.5313 163.727 12.7487 164.535 14.3373C165.355 15.9258 165.765 17.8204 165.765 20.0209V20.0599C165.765 22.2735 165.355 24.1745 164.535 25.7631C163.727 27.3516 162.594 28.5821 161.136 29.4545C159.678 30.3138 157.972 30.7435 156.019 30.7435ZM156.038 27.1888C157.132 27.1888 158.083 26.9089 158.89 26.349C159.697 25.7891 160.322 24.9818 160.765 23.9271C161.208 22.8594 161.429 21.5704 161.429 20.0599V20.0209C161.429 18.5235 161.208 17.2474 160.765 16.1928C160.322 15.125 159.691 14.3178 158.87 13.7709C158.05 13.211 157.093 12.931 155.999 12.931C154.919 12.931 153.968 13.211 153.148 13.7709C152.341 14.3308 151.709 15.1381 151.253 16.1928C150.798 17.2474 150.57 18.5235 150.57 20.0209V20.0599C150.57 21.5704 150.791 22.8594 151.234 23.9271C151.69 24.9818 152.328 25.7891 153.148 26.349C153.968 26.9089 154.932 27.1888 156.038 27.1888Z" fill="#FFDBDF"/>
<path d="M168.707 30.3334V9.7865H172.965V12.892H173.043C173.59 11.8503 174.39 11.0105 175.445 10.3724C176.5 9.7214 177.802 9.39588 179.351 9.39588C181.604 9.39588 183.349 10.0795 184.586 11.4467C185.823 12.8008 186.441 14.6628 186.441 17.0326V30.3334H182.203V17.8529C182.203 16.3034 181.838 15.112 181.109 14.2787C180.393 13.4454 179.306 13.0287 177.847 13.0287C176.858 13.0287 175.992 13.25 175.25 13.6928C174.521 14.1355 173.954 14.7539 173.551 15.5482C173.16 16.3425 172.965 17.28 172.965 18.3607V30.3334H168.707Z" fill="#FFDBDF"/>
</svg>
