<svg width="187" height="40" viewBox="0 0 187 40" fill="none" xmlns="http://www.w3.org/2000/svg">
<path d="M31.8108 6.7368C30.8454 8.14464 29.8133 9.65021 28.7133 11.2554L28.7386 11.273C25.1454 16.4481 28.285 26.1934 37.6542 27.1599C38.427 26.2069 38.9652 25.3638 39.3299 24.4834C40.519 21.6127 40.519 18.3873 39.3299 15.5166C38.4381 13.3636 36.5081 11.4336 32.6481 7.57359C32.3585 7.28392 32.0796 7.00511 31.8108 6.7368Z" fill="#FF3049"/>
<path d="M26.5708 1.94872C24.5038 4.96252 22.1155 8.44715 19.3932 12.4226C14.393 19.7246 7.27412 20.0396 2.65903 17.3597C2.0169 16.9869 1.42646 16.5587 0.895447 16.0843C0.963053 15.8937 1.03575 15.7044 1.11353 15.5166C2.00534 13.3636 3.93533 11.4336 7.79532 7.57359C11.6553 3.71361 13.5853 1.78361 15.7383 0.891807C18.609 -0.297269 21.8345 -0.297269 24.7051 0.891807C25.3283 1.14993 25.9328 1.49503 26.5708 1.94872Z" fill="#FF3049"/>
<path d="M1.0892 24.4242C1.09725 24.444 1.10536 24.4637 1.11353 24.4834C2.00534 26.6364 3.93533 28.5664 7.79532 32.4264C11.6553 36.2864 13.5853 38.2164 15.7383 39.1082C18.609 40.2973 21.8345 40.2973 24.7051 39.1082C26.7497 38.2613 28.5932 36.4782 32.0794 32.995C26.4163 30.8737 22.4828 26.3221 20.9236 21.1913C14.7721 26.4382 7.15709 27.033 1.0892 24.4242Z" fill="#FF3049"/>
<path d="M52.6187 37.2084C52.4624 37.2084 52.2931 37.2019 52.1108 37.1889C51.9285 37.1889 51.7723 37.1823 51.6421 37.1693V33.7123C51.7463 33.7123 51.8504 33.7123 51.9546 33.7123C52.0457 33.7123 52.1434 33.7123 52.2476 33.7123C53.2892 33.7123 54.0249 33.517 54.4546 33.1263C54.8973 32.7357 55.1187 32.0261 55.1187 30.9974V9.7865H59.3569V31.0365C59.3569 33.1198 58.8035 34.6693 57.6968 35.6849C56.59 36.7006 54.8973 37.2084 52.6187 37.2084ZM57.228 6.62244C56.5509 6.62244 55.9715 6.38806 55.4897 5.91931C55.008 5.43754 54.7671 4.86462 54.7671 4.20056C54.7671 3.51046 55.008 2.93103 55.4897 2.46228C55.9715 1.99353 56.5509 1.75916 57.228 1.75916C57.9312 1.75916 58.5171 1.99353 58.9858 2.46228C59.4676 2.93103 59.7085 3.51046 59.7085 4.20056C59.7085 4.86462 59.4676 5.43754 58.9858 5.91931C58.5171 6.38806 57.9312 6.62244 57.228 6.62244Z" fill="#181212"/>
<path d="M70.3651 30.7435C68.8677 30.7435 67.5851 30.4375 66.5174 29.8256C65.4627 29.2006 64.6554 28.3151 64.0955 27.1693C63.5356 26.0235 63.2557 24.6628 63.2557 23.0873V9.7865H67.5135V22.2865C67.5135 23.836 67.8716 25.0274 68.5877 25.8607C69.3169 26.681 70.4106 27.0912 71.869 27.0912C72.6242 27.0912 73.2947 26.9675 73.8807 26.7201C74.4796 26.4597 74.994 26.1016 75.4237 25.6459C75.8533 25.1771 76.1789 24.6172 76.4002 23.9662C76.6346 23.3021 76.7518 22.573 76.7518 21.7787V9.7865H80.9901V30.3334H76.7518V27.2474H76.6541C76.3026 27.9245 75.8338 28.53 75.2479 29.0638C74.6619 29.5847 73.9588 29.9948 73.1385 30.2943C72.3312 30.5938 71.4067 30.7435 70.3651 30.7435Z" fill="#181212"/>
<path d="M84.8302 30.3334V9.7865H89.088V12.892H89.1662C89.713 11.8503 90.5138 11.0105 91.5685 10.3724C92.6232 9.7214 93.9253 9.39588 95.4747 9.39588C97.7273 9.39588 99.4721 10.0795 100.709 11.4467C101.946 12.8008 102.565 14.6628 102.565 17.0326V30.3334H98.3263V17.8529C98.3263 16.3034 97.9617 15.112 97.2326 14.2787C96.5164 13.4454 95.4292 13.0287 93.9708 13.0287C92.9813 13.0287 92.1154 13.25 91.3732 13.6928C90.644 14.1355 90.0776 14.7539 89.674 15.5482C89.2833 16.3425 89.088 17.28 89.088 18.3607V30.3334H84.8302Z" fill="#181212"/>
<path d="M115.155 30.7435C113.163 30.7435 111.431 30.3073 109.959 29.4349C108.501 28.5625 107.375 27.3256 106.581 25.724C105.799 24.1224 105.409 22.2279 105.409 20.0404V20.0209C105.409 17.8464 105.806 15.9649 106.6 14.3763C107.407 12.7878 108.54 11.5638 109.998 10.7045C111.457 9.83207 113.163 9.39588 115.116 9.39588C116.873 9.39588 118.39 9.73442 119.666 10.4115C120.956 11.0756 121.965 11.961 122.694 13.0678C123.423 14.1745 123.846 15.3724 123.963 16.6615L123.983 16.8178H119.94L119.901 16.642C119.679 15.6394 119.172 14.7735 118.377 14.0443C117.596 13.3021 116.515 12.931 115.135 12.931C114.054 12.931 113.104 13.224 112.284 13.8099C111.476 14.3829 110.845 15.2032 110.389 16.2709C109.946 17.3386 109.725 18.6016 109.725 20.0599V20.0795C109.725 21.5769 109.953 22.8594 110.409 23.9271C110.864 24.9818 111.496 25.7891 112.303 26.349C113.123 26.9089 114.081 27.1888 115.174 27.1888C116.476 27.1888 117.525 26.8503 118.319 26.1732C119.126 25.4831 119.66 24.5847 119.92 23.4779L119.94 23.3217H124.002V23.4584C123.846 24.8256 123.377 26.0625 122.596 27.1693C121.828 28.2631 120.806 29.1355 119.53 29.7865C118.267 30.4245 116.808 30.7435 115.155 30.7435Z" fill="#181212"/>
<path d="M133.936 30.7435C131.905 30.7435 130.388 30.2878 129.386 29.3763C128.396 28.4519 127.901 26.961 127.901 24.9037V13.1459H124.952V9.7865H127.901V4.43494H132.237V9.7865H136.085V13.1459H132.237V24.6693C132.237 25.711 132.465 26.4271 132.921 26.8178C133.376 27.1954 134.053 27.3842 134.952 27.3842C135.173 27.3842 135.375 27.3776 135.557 27.3646C135.753 27.3386 135.928 27.3191 136.085 27.306V30.5678C135.837 30.6068 135.525 30.6459 135.147 30.6849C134.77 30.724 134.366 30.7435 133.936 30.7435Z" fill="#181212"/>
<path d="M139.398 30.3334V9.7865H143.655V30.3334H139.398ZM141.526 6.62244C140.849 6.62244 140.27 6.38806 139.788 5.91931C139.306 5.43754 139.066 4.86462 139.066 4.20056C139.066 3.51046 139.306 2.93103 139.788 2.46228C140.27 1.99353 140.849 1.75916 141.526 1.75916C142.217 1.75916 142.796 1.99353 143.265 2.46228C143.746 2.93103 143.987 3.51046 143.987 4.20056C143.987 4.86462 143.746 5.43754 143.265 5.91931C142.796 6.38806 142.217 6.62244 141.526 6.62244Z" fill="#181212"/>
<path d="M156.519 30.7435C154.553 30.7435 152.834 30.3138 151.363 29.4545C149.904 28.5821 148.772 27.3516 147.964 25.7631C147.157 24.1615 146.753 22.2605 146.753 20.0599V20.0209C146.753 17.8334 147.157 15.9454 147.964 14.3568C148.785 12.7683 149.924 11.5443 151.382 10.6849C152.854 9.82556 154.559 9.39588 156.499 9.39588C158.453 9.39588 160.158 9.82556 161.617 10.6849C163.088 11.5313 164.227 12.7487 165.035 14.3373C165.855 15.9258 166.265 17.8204 166.265 20.0209V20.0599C166.265 22.2735 165.855 24.1745 165.035 25.7631C164.227 27.3516 163.094 28.5821 161.636 29.4545C160.178 30.3138 158.472 30.7435 156.519 30.7435ZM156.538 27.1888C157.632 27.1888 158.583 26.9089 159.39 26.349C160.197 25.7891 160.822 24.9818 161.265 23.9271C161.708 22.8594 161.929 21.5704 161.929 20.0599V20.0209C161.929 18.5235 161.708 17.2474 161.265 16.1928C160.822 15.125 160.191 14.3178 159.37 13.7709C158.55 13.211 157.593 12.931 156.499 12.931C155.419 12.931 154.468 13.211 153.648 13.7709C152.841 14.3308 152.209 15.1381 151.753 16.1928C151.298 17.2474 151.07 18.5235 151.07 20.0209V20.0599C151.07 21.5704 151.291 22.8594 151.734 23.9271C152.19 24.9818 152.828 25.7891 153.648 26.349C154.468 26.9089 155.432 27.1888 156.538 27.1888Z" fill="#181212"/>
<path d="M169.207 30.3334V9.7865H173.465V12.892H173.543C174.09 11.8503 174.89 11.0105 175.945 10.3724C177 9.7214 178.302 9.39588 179.851 9.39588C182.104 9.39588 183.849 10.0795 185.086 11.4467C186.323 12.8008 186.941 14.6628 186.941 17.0326V30.3334H182.703V17.8529C182.703 16.3034 182.338 15.112 181.609 14.2787C180.893 13.4454 179.806 13.0287 178.347 13.0287C177.358 13.0287 176.492 13.25 175.75 13.6928C175.021 14.1355 174.454 14.7539 174.051 15.5482C173.66 16.3425 173.465 17.28 173.465 18.3607V30.3334H169.207Z" fill="#181212"/>
</svg>
